<?xml version="1.0" encoding="utf-8"?>
<!-- Generator: Adobe Illustrator 19.0.0, SVG Export Plug-In . SVG Version: 6.00 Build 0)  -->
<svg version="1.1" id="Layer_1" xmlns="http://www.w3.org/2000/svg" xmlns:xlink="http://www.w3.org/1999/xlink" x="0px" y="0px"
	 viewBox="0 0 500 500" style="enable-background:new 0 0 500 500;" xml:space="preserve">
<style type="text/css">
	.st0{fill:#75A928;}
	.st1{fill:#BC1142;}
</style>
<g id="XMLID_1_">
	<path id="XMLID_17_" d="M190.6,67.5c-1.8,0.1-3.8,0.7-6.1,2.5c-5.5-2.1-10.9-2.9-15.7,1.5c-7.4-1-9.8,1-11.6,3.3
		c-1.6,0-12.1-1.7-17,5.5c-12.1-1.4-16,7.1-11.6,15.1c-2.5,3.8-5,7.6,0.7,14.9c-2,4.1-0.8,8.5,4,13.8c-1.3,5.7,1.2,9.8,5.7,12.9
		c-0.8,7.8,7.2,12.4,9.6,14c0.9,4.6,2.8,8.9,12,11.3c1.5,6.8,7,8,12.4,9.4c-17.6,10.2-32.7,23.7-32.6,56.8l-2.6,4.6
		c-20.2,12.3-38.4,51.8-10,83.9c1.9,10.1,5,17.3,7.7,25.3c4.1,32.2,31.2,47.3,38.4,49.1c10.5,8,21.6,15.5,36.7,20.8
		c14.2,14.7,29.6,20.2,45.1,20.2c0.2,0,31.6-5.6,45.8-20.2c15.1-5.3,26.2-12.9,36.7-20.8c7.1-1.8,34.2-16.9,38.4-49.1
		c2.8-8,5.9-15.2,7.7-25.3c28.4-32.1,10.3-71.6-10-83.9l-2.6-4.6c0.1-33.1-15-46.6-32.6-56.8c5.3-1.4,10.8-2.6,12.4-9.4
		c9.2-2.4,11.1-6.7,12-11.3c2.4-1.6,10.4-6.2,9.6-14c4.5-3.1,7-7.2,5.7-12.9c4.8-5.3,6.1-9.8,4-13.8c5.8-7.3,3.2-11.1,0.7-14.9
		c4.3-8,0.5-16.6-11.6-15.1c-4.8-7.2-15.3-5.6-17-5.5c-1.8-2.3-4.2-4.3-11.6-3.3c-4.8-4.3-10.1-3.6-15.7-1.5
		c-6.6-5.2-10.9-1-15.9,0.5c-7.9-2.6-9.8,1-13.7,2.4c-8.7-1.8-11.3,2.2-15.4,6.4l-4.8-0.1c-13.1,7.7-19.5,23.4-21.8,31.4
		c-2.3-8.1-8.8-23.7-21.8-31.4l-4.8,0.1c-4.2-4.2-6.8-8.2-15.4-6.4c-3.9-1.4-5.7-5-13.7-2.4C197.1,69.5,194.1,67.4,190.6,67.5"/>
	<path id="XMLID_4_" class="st0" d="M164.6,101.4c34.7,17.9,54.8,32.3,65.8,44.6c-5.7,22.7-35.1,23.7-45.9,23.1c2.2-1,4-2.3,4.7-4.1
		c-2.7-1.9-12.3-0.2-19-4c2.6-0.5,3.8-1.1,5-3c-6.3-2-13.1-3.8-17.1-7.1c2.2,0,4.2,0.5,7-1.5c-5.7-3.1-11.7-5.5-16.4-10.1
		c2.9-0.1,6.1,0,7-1.1c-5.2-3.2-9.6-6.8-13.2-10.7c4.1,0.5,5.8,0.1,6.8-0.6c-3.9-4-8.9-7.4-11.2-12.4c3,1,5.8,1.5,7.8-0.1
		c-1.3-3-7-4.8-10.3-11.8c3.2,0.3,6.6,0.7,7.3,0c-1.5-6.1-4-9.5-6.5-13c6.9-0.1,17.3,0,16.8-0.6l-4.2-4.3c6.7-1.8,13.6,0.3,18.5,1.8
		c2.2-1.8,0-4-2.8-6.3c5.7,0.8,10.8,2.1,15.5,3.9c2.5-2.2-1.6-4.5-3.6-6.7c8.8,1.7,12.5,4,16.2,6.4c2.7-2.6,0.2-4.8-1.7-7
		c6.6,2.5,10,5.6,13.6,8.8c1.2-1.6,3.1-2.9,0.8-6.8c4.7,2.7,8.3,5.9,10.9,9.5c2.9-1.9,1.7-4.4,1.8-6.7c4.9,4,8,8.2,11.8,12.4
		c0.8-0.6,1.4-2.4,2-5.4c11.7,11.3,28.2,39.9,4.2,51.2C215.9,122.7,191.5,110.5,164.6,101.4L164.6,101.4"/>
	<path id="XMLID_5_" class="st0" d="M348.5,101.4c-34.6,17.9-54.8,32.3-65.8,44.6c5.7,22.7,35.1,23.7,45.9,23.1
		c-2.2-1-4-2.3-4.7-4.1c2.7-1.9,12.3-0.2,19-4c-2.6-0.5-3.8-1.1-5-3c6.3-2,13.1-3.8,17.1-7.1c-2.2,0-4.2,0.5-7-1.5
		c5.7-3.1,11.7-5.5,16.4-10.1c-2.9-0.1-6.1,0-7-1.1c5.2-3.2,9.6-6.8,13.2-10.7c-4.1,0.5-5.8,0.1-6.8-0.6c3.9-4,8.9-7.4,11.2-12.4
		c-3,1-5.8,1.5-7.8-0.1c1.3-3,7-4.8,10.3-11.8c-3.2,0.3-6.6,0.7-7.3,0c1.5-6.1,4-9.5,6.5-13c-6.9-0.1-17.3,0-16.8-0.6l4.2-4.3
		c-6.7-1.8-13.6,0.3-18.5,1.8c-2.2-1.8,0-4,2.8-6.3c-5.7,0.8-10.8,2.1-15.5,3.9c-2.5-2.2,1.6-4.5,3.6-6.7c-8.8,1.7-12.5,4-16.2,6.4
		c-2.7-2.6-0.2-4.8,1.7-7c-6.6,2.5-10,5.6-13.6,8.8c-1.2-1.6-3.1-2.9-0.8-6.8c-4.7,2.7-8.3,5.9-10.9,9.5c-2.9-1.9-1.7-4.4-1.8-6.7
		c-4.9,4-8,8.2-11.8,12.4c-0.8-0.6-1.4-2.4-2-5.4c-11.7,11.3-28.2,39.9-4.2,51.2C297.2,122.7,321.5,110.5,348.5,101.4L348.5,101.4"
		/>
	<path id="XMLID_6_" class="st1" d="M298.5,332c0.1,21.1-18.4,38.4-41.3,38.5c-22.9,0.1-41.6-16.9-41.7-38.1c0-0.1,0-0.3,0-0.4
		c-0.1-21.1,18.4-38.4,41.3-38.5c22.9-0.1,41.6,16.9,41.7,38.1V332"/>
	<path id="XMLID_7_" class="st1" d="M233,222.7c17.2,11.3,20.3,36.8,6.9,57c-13.4,20.2-38.2,27.5-55.4,16.2
		c-17.2-11.3-20.3-36.8-6.9-57C191,218.7,215.8,211.4,233,222.7"/>
	<path id="XMLID_8_" class="st1" d="M279.4,220.7c-17.2,11.3-20.3,36.8-6.9,57c13.4,20.2,38.2,27.5,55.4,16.2
		c17.2-11.3,20.3-36.8,6.9-57C321.4,216.7,296.6,209.4,279.4,220.7"/>
	<path id="XMLID_9_" class="st1" d="M147,241.1c18.6-5,6.3,76.8-8.8,70.1C121.6,297.9,116.2,258.7,147,241.1"/>
	<path id="XMLID_10_" class="st1" d="M361.6,240.1c-18.6-5-6.3,76.8,8.8,70.1C387.1,296.8,392.4,257.7,361.6,240.1"/>
	<path id="XMLID_11_" class="st1" d="M298.5,179.2c32-5.4,58.7,13.6,57.6,48.4C355.1,240.9,286.7,181.2,298.5,179.2"/>
	<path id="XMLID_12_" class="st1" d="M210,178.2c-32-5.4-58.7,13.6-57.6,48.4C153.4,239.9,221.8,180.2,210,178.2"/>
	<path id="XMLID_13_" class="st1" d="M256,170.1c-19.1-0.5-37.5,14.2-37.5,22.7c-0.1,10.4,15.1,21,37.7,21.2
		c23,0.2,37.7-8.5,37.8-19.2C294,182.7,273,169.9,256,170.1L256,170.1"/>
	<path id="XMLID_14_" class="st1" d="M257.2,382.4c16.7-0.7,39,5.4,39.1,13.5c0.3,7.9-20.3,25.6-40.2,25.3
		c-20.6,0.9-40.8-16.9-40.6-23C215.2,389,240.6,382,257.2,382.4"/>
	<path id="XMLID_15_" class="st1" d="M195.6,334.4c11.9,14.3,17.3,39.4,7.4,46.8c-9.4,5.7-32.1,3.3-48.3-19.9
		c-10.9-19.5-9.5-39.3-1.8-45.2C164.3,309.2,182,318.6,195.6,334.4L195.6,334.4"/>
	<path id="XMLID_16_" class="st1" d="M316.4,329.9c-12.8,15-20,42.5-10.6,51.3c9,6.9,33,5.9,50.8-18.7c12.9-16.6,8.6-44.2,1.2-51.5
		C346.8,302.5,331.1,313.3,316.4,329.9L316.4,329.9"/>
</g>
</svg>
